<?xml version="1.0" standalone="no"?>
<!DOCTYPE svg PUBLIC "-//W3C//DTD SVG 20010904//EN"
 "http://www.w3.org/TR/2001/REC-SVG-20010904/DTD/svg10.dtd">
<svg version="1.0" xmlns="http://www.w3.org/2000/svg"
 width="799.000000pt" height="799.000000pt" viewBox="0 0 799.000000 799.000000"
 preserveAspectRatio="xMidYMid meet">
<metadata>
Created by potrace 1.14, written by Peter Selinger 2001-2017
</metadata>
<g transform="translate(0.000000,799.000000) scale(0.100000,-0.100000)"
fill="#000000" stroke="none">
<path d="M3038 7902 c-15 -48 -51 -163 -81 -257 -215 -665 -358 -1112 -362
-1125 -2 -8 -33 -105 -68 -215 -63 -193 -152 -471 -299 -930 -39 -121 -99
-308 -134 -415 -34 -107 -99 -310 -144 -450 -45 -140 -104 -322 -130 -405 -27
-82 -87 -271 -135 -420 -48 -148 -96 -299 -108 -335 -12 -36 -22 -67 -22 -70
-1 -3 -29 -93 -64 -200 -34 -107 -101 -314 -147 -460 -47 -146 -89 -276 -94
-290 -5 -14 -39 -119 -75 -235 -37 -115 -84 -264 -105 -330 -21 -66 -75 -235
-120 -375 -45 -140 -96 -300 -114 -355 -18 -55 -41 -127 -50 -160 -10 -33 -20
-67 -23 -75 -3 -8 -7 -19 -9 -25 -1 -5 -27 -86 -57 -180 -104 -321 -187 -583
-187 -589 0 -3 224 -6 498 -6 l497 0 37 118 c20 64 68 216 106 337 126 396
212 666 282 885 173 542 285 893 315 990 18 58 49 155 68 215 133 417 169 532
172 545 2 8 16 52 32 96 74 206 212 355 403 435 124 53 165 55 1035 53 440 0
831 -4 869 -8 241 -26 441 -163 507 -346 20 -55 23 -87 25 -205 1 -85 -4 -175
-13 -230 -8 -49 -16 -101 -18 -115 -7 -43 -312 -996 -532 -1660 -24 -74 -46
-142 -48 -150 -5 -22 -301 -900 -314 -933 l-11 -27 511 2 511 3 50 155 c27 85
72 225 98 310 92 291 399 1249 565 1765 70 215 124 403 130 450 1 11 5 36 9
55 11 65 14 87 22 176 10 112 10 316 0 414 -7 66 -12 100 -32 200 -63 316
-255 591 -561 804 -29 20 -55 36 -57 36 -2 0 -32 16 -65 35 -59 33 -222 102
-259 110 -9 2 -51 12 -92 24 -41 11 -97 23 -125 27 -27 3 -59 9 -70 12 -11 3
-443 7 -960 9 -517 2 -983 4 -1036 6 l-95 2 78 240 c43 132 79 247 81 255 2 8
47 150 101 315 54 165 149 460 213 655 63 195 155 479 205 630 49 151 91 280
92 285 1 6 14 46 28 90 15 44 56 170 91 280 36 110 97 298 136 417 39 119 71
219 71 222 0 3 -224 6 -497 6 l-498 0 -27 -88z"/>
</g>
</svg>
